<svg xmlns="http://www.w3.org/2000/svg" width="256" height="256" viewBox="0 0 100 100"><rect width="100" height="100" rx="20" fill="#6788ff"></rect><path d="M16.47 43.17L20.65 43.17L20.65 66.98L16.47 66.98L16.47 43.17ZM21.59 35.70L21.59 35.70Q21.59 36.31 21.34 36.84Q21.10 37.37 20.68 37.78Q20.27 38.19 19.73 38.43Q19.19 38.66 18.58 38.66L18.58 38.66Q17.97 38.66 17.44 38.43Q16.91 38.19 16.50 37.78Q16.09 37.37 15.85 36.84Q15.62 36.31 15.62 35.70L15.62 35.70Q15.62 35.09 15.85 34.54Q16.09 33.98 16.50 33.57Q16.91 33.16 17.44 32.93Q17.97 32.69 18.58 32.69L18.58 32.69Q19.19 32.69 19.73 32.93Q20.27 33.16 20.68 33.57Q21.10 33.98 21.34 34.54Q21.59 35.09 21.59 35.70ZM57.87 50.15L57.87 50.15Q57.87 53.94 56.67 57.04Q55.48 60.14 53.29 62.35Q51.10 64.56 48.05 65.77Q44.99 66.98 41.28 66.98L41.28 66.98L28.69 66.98L28.69 33.30L41.28 33.30Q44.99 33.30 48.05 34.51Q51.10 35.72 53.29 37.94Q55.48 40.17 56.67 43.27Q57.87 46.37 57.87 50.15ZM53.20 50.15L53.20 50.15Q53.20 47.05 52.35 44.61Q51.50 42.16 49.95 40.47Q48.40 38.78 46.19 37.89Q43.98 36.99 41.28 36.99L41.28 36.99L33.27 36.99L33.27 63.29L41.28 63.29Q43.98 63.29 46.19 62.40Q48.40 61.50 49.95 59.82Q51.50 58.14 52.35 55.70Q53.20 53.25 53.20 50.15ZM73.05 42.80L73.05 42.80Q75.66 42.80 77.77 43.67Q79.87 44.54 81.34 46.13Q82.81 47.73 83.59 50Q84.38 52.27 84.38 55.06L84.38 55.06Q84.38 57.88 83.59 60.14Q82.81 62.40 81.34 63.99Q79.87 65.59 77.77 66.45Q75.66 67.31 73.05 67.31L73.05 67.31Q70.44 67.31 68.34 66.45Q66.24 65.59 64.76 63.99Q63.28 62.40 62.48 60.14Q61.68 57.88 61.68 55.06L61.68 55.06Q61.68 52.27 62.48 50Q63.28 47.73 64.76 46.13Q66.24 44.54 68.34 43.67Q70.44 42.80 73.05 42.80ZM73.05 64.04L73.05 64.04Q76.58 64.04 78.32 61.68Q80.06 59.32 80.06 55.09L80.06 55.09Q80.06 50.83 78.32 48.46Q76.58 46.09 73.05 46.09L73.05 46.09Q71.27 46.09 69.95 46.70Q68.64 47.31 67.75 48.46Q66.87 49.61 66.44 51.29Q66.00 52.97 66.00 55.09L66.00 55.09Q66.00 57.20 66.44 58.87Q66.87 60.54 67.75 61.68Q68.64 62.82 69.95 63.43Q71.27 64.04 73.05 64.04Z" fill="#fff"></path></svg>